# AST/ASF file generated using VICON BodyLanguage
# -----------------------------------------------
:version 1.10
:name VICON
:units
  mass 1.0
  length 0.45
  angle deg
:documentation
   .ast/.asf automatically generated from VICON data using
   VICON BodyBuilder and BodyLanguage model FoxedUp or BRILLIANT.MOD
:root
   order TX TY TZ RX RY RZ
   axis XYZ
   position 0 0 0  
   orientation 0 0 0 
:bonedata
  begin
     id 1 
     name lhipjoint
     direction 0.78388 -0.462562 0.414208 
     length 3.01181 
     axis 0 0 0  XYZ
  end
  begin
     id 2 
     name lfemur
     direction 0.34202 -0.939693 0  
     length 6.04673  
     axis 0 0 20  XYZ
    dof rx ry rz
    limits (-160.0 20.0)
           (-70.0 70.0)
           (-60.0 70.0)
  end
  begin
     id 3 
     name ltibia
     direction 0.34202 -0.939693 0   
     length 7.211   
     axis 0 0 20   XYZ
    dof rx
    limits (-10.0 170.0)
  end
  begin
     id 4 
     name lfoot
     direction 0.121887 -0.334882 0.934344   
     length 2.13567   
     axis -90 7.62852e-016 20   XYZ
    dof rx rz
    limits (-45.0 90.0)
           (-70.0 20.0)
  end
  begin
     id 5 
     name ltoes
     direction 1.53555e-011 -4.2179e-011 1   
     length 1.05957   
     axis -90 7.62852e-016 20   XYZ
    dof rx
    limits (-90.0 20.0)
  end
  begin
     id 6 
     name rhipjoint
     direction -0.769387 -0.475875 0.426129   
     length 2.92756  
     axis 0 0 0  XYZ 
  end
  begin
     id 7 
     name rfemur
     direction -0.34202 -0.939693 0   
     length 6.35468   
     axis 0 0 -20   XYZ
    dof rx ry rz
    limits (-160.0 20.0)
           (-70.0 70.0)
           (-70.0 60.0)
  end
  begin
     id 8 
     name rtibia
     direction -0.34202 -0.939693 0   
     length 7.37886   
     axis 0 0 -20   XYZ
    dof rx
    limits (-10.0 170.0)
 end
 begin
     id 9 
     name rfoot
     direction -0.101763 -0.279592 0.954711   
     length 2.21478  
     axis -90 -7.62852e-016 -20   XYZ
    dof rx rz
    limits (-45.0 90.0)
           (-20.0 70.0)
  end
  begin
     id 10 
     name rtoes
     direction -1.53494e-011 -4.21851e-011 1   
     length 1.10506   
     axis -90 -7.62852e-016 -20   XYZ
    dof rx
    limits (-90.0 20.0)
  end
  begin
     id 11 
     name lowerback
     direction 0.00747405 0.999267 0.0375481   
     length 2.13259   
     axis 0 0 0   XYZ
    dof rx ry rz
    limits (-20.0 45.0)
           (-30.0 30.0)
           (-30.0 30.0)
  end
  begin
     id 12 
     name upperback
     direction 0.00661626 0.996177 0.0871029   
     length 2.10528   
     axis 0 0 0   XYZ
    dof rx ry rz
    limits (-20.0 45.0)
           (-30.0 30.0)
           (-30.0 30.0)
  end
  begin
     id 13 
     name thorax
     direction 0.00320659 0.997679 0.0680167   
     length 2.11338   
     axis 0 0 0   XYZ
    dof rx ry rz
    limits (-20.0 45.0)
           (-30.0 30.0)
           (-30.0 30.0)
  end
  begin
     id 14 
     name lowerneck
     direction 0.0374841 0.973033 0.227602   
     length 1.42765   
     axis 0 0 0   XYZ
    dof rx ry rz
    limits (-20.0 45.0)
           (-30.0 30.0)
           (-30.0 30.0)
  end
  begin
     id 15 
     name upperneck
     direction 0.00481585 0.989155 -0.146795   
     length 1.47593   
     axis 0 0 0   XYZ
    dof rx ry rz
    limits (-20.0 45.0)
           (-30.0 30.0)
           (-30.0 30.0)
  end
  begin
     id 16
     name head
     direction -0.00292522 0.997206 -0.0746423  
     length 1.48116  
     axis 0 0 0   XYZ
    dof rx ry rz
    limits (-20.0 45.0)
           (-30.0 30.0)
           (-30.0 30.0)
  end
  begin
     id 17 
     name lclavicle
     direction 0.951444 0.305606 0.0368784  
     length 3.01855  
     axis 0 0 0   XYZ
    dof ry rz
    limits (-20.0 10.0)
           (0.0 20.0)
  end
  begin
     id 18 
     name lhumerus
     direction 1 -4.48977e-011 2.61664e-027   
     length 5.52731   
     axis 180 -30 -90   XYZ
    dof rx ry rz
    limits (-60.0 90.0)
           (-90.0 90.0)
           (-90.0 90.0)
  end
  begin
     id 19
     name lradius
     direction 1 -4.48944e-011 8.22157e-027   
     length 3.11059   
     axis 180 -30 -90   XYZ
    dof rx
    limits (-10.0 170.0)
  end
  begin
     id 20
     name lwrist
     direction 1 -4.48976e-011 1.5779e-026   
     length 1.5553   
     axis -1.15221e-014 90 90   XYZ
    dof ry
    limits (-180.0 0.0)
 end
  begin
     id 21 
     name lhand
     direction 1 -4.49025e-011 3.1558e-026   
     length 0.419626   
     axis -2.01367e-014 90 90   XYZ
    dof rx rz
    limits (-90.0 90.0)
           (-45.0 45.0)
  end
  begin
     id 22 
     name lfingers
     direction 1 -4.4904e-011 6.31161e-026   
     length 0.338313   
     axis -4.02734e-014 90 90   XYZ
    dof rx
    limits (0.0 90.0)
  end
  begin
     id 23
     name lthumb
     direction 0.707107 -6.35004e-011 0.707107   
     length 0.485752   
     axis -90 45 2.85299e-015   XYZ
    dof rx rz
    limits (-45.0 45.0)
           (-45.0 45.0)
  end
  begin
     id 24 
     name rclavicle
     direction -0.968876 0.223791 0.105816   
     length 3.04177  
     axis 0 0 0   XYZ 
    dof ry rz
    limits (-10.0 20.0)
           (-20.0 0.0)
  end
  begin
     id 25 
     name rhumerus
     direction -1 -4.48962e-011 -1.01384e-027  
     length 5.25396   
     axis 180 30 90   XYZ
    dof rx ry rz
    limits (-90.0 60.0)
           (-90.0 90.0)
           (-90.0 90.0)
  end
  begin
     id 26 
     name rradius
     direction -1 -4.48955e-011 8.88542e-027   
     length 3.10567   
     axis 180 30 90   XYZ
    dof rx
    limits (-10.0 170.0)
  end
  begin
     id 27 
     name rwrist
     direction -1 -4.48994e-011 1.5779e-026   
     length 1.55283   
     axis -1.15221e-014 -90 -90   XYZ
    dof ry
    limits (-180.0 0.0)
  end
  begin
     id 28
     name rhand
     direction -1 -4.48891e-011 3.1558e-026   
     length 0.498676   
     axis -2.01367e-014 -90 -90   XYZ
    dof rx rz
    limits (-90.0 90.0)
           (-45.0 45.0)
  end
  begin
     id 29
     name rfingers
     direction -1 -4.48972e-011 6.31161e-026   
     length 0.402045   
     axis -4.02734e-014 -90 -90   XYZ
    dof rx
    limits (0.0 90.0)
  end
  begin
     id 30
     name rthumb
     direction -0.707107 -6.34849e-011 0.707107   
     length 0.577259   
     axis -90 -45 -2.85299e-015   XYZ
    dof rx rz
    limits (-45.0 45.0)
           (-45.0 45.0)
  end
:hierarchy
  begin
    root lhipjoint rhipjoint lowerback
    lhipjoint lfemur
    lfemur ltibia
    ltibia lfoot
    lfoot ltoes
    rhipjoint rfemur
    rfemur rtibia
    rtibia rfoot
    rfoot rtoes
    lowerback upperback
    upperback thorax
    thorax lowerneck lclavicle rclavicle
    lowerneck upperneck
    upperneck head
    lclavicle lhumerus
    lhumerus lradius
    lradius lwrist
    lwrist lhand lthumb
    lhand lfingers
    rclavicle rhumerus
    rhumerus rradius
    rradius rwrist
    rwrist rhand rthumb
    rhand rfingers
  end

#!OML:ASF H:\Pregnant\Project 1\Capture day 1\Session 1\femalepreg.ASF
:FULLY-SPECIFIED
:DEGREES
108
root -7.81847 15.3228 20.658 -159.099 -1.02147 179.237
lowerback -11.874 1.48654 3.18218
upperback -4.05727 1.23167 -1.45788
thorax 2.51513 0.413786 -3.1509
lowerneck -19.0412 2.3837 4.85071
upperneck 25.1687 2.13037 -3.63051
head 11.4547 0.68393 -1.88621
rclavicle -1.26803e-014 -6.21202e-017
rhumerus -32.2143 19.9031 -95.4946
rradius 49.0699
rwrist -10.0192
rhand -13.5759 -13.2984
rfingers 7.12502
rthumb 12.538 -42.9022
lclavicle -1.26803e-014 -6.21202e-017
lhumerus -50.3204 5.57737 52.576
lradius 18.0306
lwrist 31.5053
lhand -31.8878 4.23305
lfingers 7.12502
lthumb -5.14041 34.1507
rfemur -15.5382 18.4798 21.5756
rtibia 33.8281
rfoot -19.2931 -11.6846
rtoes -29.4481
lfemur -55.207 -7.37802 -14.171
ltibia 31.8562
lfoot -5.50523 -1.93409
ltoes -26.1442
109
root -7.83506 15.2962 20.4802 -159.324 -0.799317 179.356
lowerback -11.9183 1.35235 2.62314
upperback -3.9046 1.1379 -1.76786
thorax 2.68653 0.377101 -3.17085
lowerneck -18.9743 2.35291 4.78379
upperneck 25.2097 1.89164 -2.90114
head 11.4381 0.661827 -1.64272
rclavicle -7.7526e-015 1.98785e-016
rhumerus -32.8103 20.1788 -95.8377
rradius 49.1432
rwrist -9.76776
rhand -13.4323 -13.2197
rfingers 7.12502
rthumb 12.6765 -42.8149
lclavicle -7.7526e-015 1.98785e-016
lhumerus -50.2669 5.45326 52.4537
lradius 18.2965
lwrist 31.9571
lhand -32.0527 3.35355
lfingers 7.12502
lthumb -5.2996 33.2673
rfemur -15.1872 18.224 21.834
rtibia 34.8074
rfoot -19.0204 -10.8385
rtoes -30.4873
lfemur -54.7753 -6.76717 -14.6753
ltibia 32.5684
lfoot -5.03897 -3.50116
ltoes -25.2617
110
root -7.85153 15.2718 20.3025 -159.556 -0.576461 179.444
lowerback -11.9603 1.21109 2.01276
upperback -3.75326 1.03857 -2.09308
thorax 2.85479 0.334224 -3.17899
lowerneck -18.883 2.32994 4.75274
upperneck 25.2355 1.6436 -2.15423
head 11.414 0.639383 -1.4009
rclavicle 2.93207e-015 -1.35174e-014
rhumerus -33.4024 20.3866 -96.162
rradius 49.1368
rwrist -9.45443
rhand -13.2642 -13.1378
rfingers 7.12502
rthumb 12.8385 -42.723
lclavicle 2.93207e-015 -1.35174e-014
lhumerus -50.1648 5.34318 52.3458
lradius 18.5515
lwrist 32.4675
lhand -32.1783 2.49837
lfingers 7.12502
lthumb -5.42091 32.409
rfemur -15.001 17.8719 22.0455
rtibia 36.047
rfoot -18.6348 -9.85882
rtoes -31.4813
lfemur -54.3726 -6.19741 -15.1889
ltibia 33.5244
lfoot -4.85419 -4.76022
ltoes -23.8637
111
root -7.86783 15.2496 20.1256 -159.794 -0.348996 179.5
lowerback -11.9897 1.06304 1.35024
upperback -3.60497 0.933612 -2.43033
thorax 3.01251 0.28461 -3.17167
lowerneck -18.7631 2.3154 4.74959
upperneck 25.2344 1.39027 -1.38836
head 11.3771 0.61752 -1.15824
rclavicle -1.63997e-015 -1.35174e-014
rhumerus -33.9881 20.5128 -96.4592
rradius 49.0588
rwrist -9.08325
rhand -13.0457 -13.0653
rfingers 7.12502
rthumb 13.0492 -42.6371
lclavicle -1.63997e-015 -1.35174e-014
lhumerus -50.0077 5.25619 52.2531
lradius 18.7801
lwrist 33.0159
lhand -32.3427 1.74966
lfingers 7.12502
lthumb -5.57965 31.6562
rfemur -15.008 17.4124 22.2042
rtibia 37.5773
rfoot -18.0851 -8.7279
rtoes -32.3752
lfemur -53.9995 -5.72746 -15.6563
ltibia 34.6477
lfoot -5.04329 -5.57213
ltoes -22.2835
112
root -7.88383 15.2297 19.9503 -160.052 -0.121535 179.504
lowerback -11.9782 0.899497 0.607371
upperback -3.44907 0.815519 -2.77235
thorax 3.15468 0.224972 -3.12648
lowerneck -18.6508 2.31267 4.77325
upperneck 25.216 1.14272 -0.625002
head 11.3388 0.598421 -0.920811
rclavicle -4.67144e-015 7.95139e-015
rhumerus -34.5581 20.5611 -96.7101
rradius 48.9203
rwrist -8.62525
rhand -12.8196 -12.998
rfingers 7.12502
rthumb 13.2671 -42.5558
lclavicle -4.67144e-015 7.95139e-015
lhumerus -49.7849 5.20676 52.1955
lradius 18.9771
lwrist 33.6066
lhand -32.524 1.09034
lfingers 7.12502
lthumb -5.7547 30.9922
rfemur -15.2204 16.8585 22.2935
rtibia 39.428
rfoot -17.2985 -7.45585
rtoes -33.0667
lfemur -53.6122 -5.40409 -16.0712
ltibia 35.8258
lfoot -5.59062 -5.90024
ltoes -20.8924
113
root -7.899 15.2118 19.7774 -160.354 0.0971767 179.435
lowerback -11.8884 0.709214 -0.241626
upperback -3.26991 0.672677 -3.11074
thorax 3.27653 0.150123 -3.0216
lowerneck -18.5722 2.32432 4.82001
upperneck 25.173 0.915089 0.110309
head 11.3016 0.585827 -0.694849
rclavicle 4.96962e-016 -4.05521e-014
rhumerus -35.0912 20.5453 -96.8942
rradius 48.7286
rwrist -8.10395
rhand -12.5906 -12.9456
rfingers 7.12502
rthumb 13.4878 -42.4888
lclavicle 4.96962e-016 -4.05521e-014
lhumerus -49.4877 5.16821 52.2254
lradius 19.1473
lwrist 34.2587
lhand -32.7036 0.555101
lfingers 7.12502
lthumb -5.9281 30.4522
rfemur -15.6217 16.2125 22.303
rtibia 41.6051
rfoot -16.2082 -6.05809
rtoes -33.3717
lfemur -53.1496 -5.23908 -16.4622
ltibia 36.9452
lfoot -6.39911 -5.87237
ltoes -19.8843
114
root -7.913 15.1952 19.608 -160.724 0.296363 179.263
lowerback -11.671 -0.0645684 -1.1167
upperback -3.09954 0.619 -3.41747
thorax 3.33128 0.490451 -2.83419
lowerneck -18.5561 2.35605 4.87462
upperneck 25.1246 0.722574 0.805484
head 11.2779 0.584417 -0.479674
rclavicle -1.59028e-015 7.95139e-016
rhumerus -35.5998 20.4781 -96.999
rradius 48.4937
rwrist -7.54431
rhand -12.386 -12.8987
rfingers 7.12502
rthumb 13.6851 -42.4288
lclavicle -1.59028e-015 7.95139e-016
lhumerus -49.1205 5.12168 52.3663
lradius 19.2888
lwrist 34.9662
lhand -32.8717 0.157627
lfingers 7.12502
lthumb -6.09032 30.0501
rfemur -16.1845 15.4765 22.2127
rtibia 44.0832
rfoot -14.754 -4.5923
rtoes -33.0803
lfemur -52.5339 -5.22961 -16.8779
ltibia 37.907
lfoot -7.28298 -5.63292
ltoes -19.3878
115
root -7.92537 15.18 19.4425 -161.171 0.470686 178.974
lowerback -11.3058 -0.334002 -2.25788
upperback -2.88338 0.415067 -3.73916
thorax 3.34558 0.389742 -2.55466
lowerneck -18.5811 2.40022 4.92619
upperneck 25.0702 0.565499 1.43876
head 11.2624 0.590905 -0.281286
rclavicle 6.75868e-015 1.90833e-014
rhumerus -36.1079 20.3578 -97.0234
rradius 48.219
rwrist -6.9752
rhand -12.2699 -12.8893
rfingers 7.12502
rthumb 13.7969 -42.4118
lclavicle 6.75868e-015 1.90833e-014
lhumerus -48.6807 5.02398 52.637
lradius 19.3947
lwrist 35.7139
lhand -32.939 -0.163146
lfingers 7.12502
lthumb -6.1553 29.7274
rfemur -16.875 14.6692 22.0092
rtibia 46.8004
rfoot -12.9094 -3.16009
rtoes -32.018
lfemur -51.7205 -5.35135 -17.3612
ltibia 38.6528
lfoot -8.1448 -5.34853
ltoes -18.8674
116
root -7.93616 15.1668 19.2815 -161.66 0.613662 178.572
lowerback -10.8223 -0.618078 -3.53089
upperback -2.6756 0.199869 -4.04972
thorax 3.29055 0.285389 -2.19036
lowerneck -18.5921 2.44643 4.95532
upperneck 25.0073 0.442881 1.99369
head 11.2423 0.600349 -0.102975
rclavicle 5.96354e-016 -4.77083e-015
rhumerus -36.6538 20.1706 -96.959
rradius 47.9131
rwrist -6.44963
rhand -12.2794 -12.9221
rfingers 7.12502
rthumb 13.7877 -42.4452
lclavicle 5.96354e-016 -4.77083e-015
lhumerus -48.1689 4.82682 53.0493
lradius 19.4544
lwrist 36.4493
lhand -32.8809 -0.377734
lfingers 7.12502
lthumb -6.09919 29.5145
rfemur -17.6944 13.8119 21.6868
rtibia 49.6757
rfoot -10.7172 -1.90163
rtoes -30.1156
lfemur -50.7326 -5.5687 -17.9349
ltibia 39.1605
lfoot -9.01175 -5.05504
ltoes -18.4386
117
root -7.94602 15.1561 19.124 -162.151 0.73792 178.089
lowerback -10.2753 -0.89414 -4.88055
upperback -2.48701 -0.00539403 -4.3458
thorax 3.18703 0.189507 -1.76663
lowerneck -18.5919 2.49046 4.95176
upperneck 24.9513 0.354007 2.46363
head 11.2229 0.611217 0.0545621
rclavicle -6.36111e-015 -1.90833e-014
rhumerus -37.2442 19.9161 -96.8076
rradius 47.5837
rwrist -6.01158
rhand -12.433 -13.0096
rfingers 7.12502
rthumb 13.6397 -42.5427
lclavicle -6.36111e-015 -1.90833e-014
lhumerus -47.5637 4.53911 53.5796
lradius 19.4493
lwrist 37.0851
lhand -32.6462 -0.502779
lfingers 7.12502
lthumb -5.87268 29.3958
rfemur -18.6403 12.9383 21.2622
rtibia 52.6194
rfoot -8.34615 -0.933013
rtoes -27.506
lfemur -49.6269 -5.82802 -18.5891
ltibia 39.4503
lfoot -9.82119 -4.72302
ltoes -18.133
118
root -7.95542 15.1486 18.9697 -162.587 0.840433 177.569
lowerback -9.73534 -1.14469 -6.23263
upperback -2.33615 -0.183407 -4.62778
thorax 3.05451 0.112385 -1.32462
lowerneck -18.5407 1.43532 5.27856
upperneck 24.9517 0.651798 2.48454
head 11.2009 1.4777 0.18896
rclavicle -1.19271e-014 -4.6118e-014
rhumerus -37.8892 19.5677 -96.575
rradius 47.2434
rwrist -5.68621
rhand -12.7458 -13.1682
rfingers 7.12502
rthumb 13.3383 -42.7213
lclavicle -1.19271e-014 -4.6118e-014
lhumerus -46.8463 4.15102 54.209
lradius 19.3775
lwrist 37.5371
lhand -32.2298 -0.470663
lfingers 7.12502
lthumb -5.47064 29.4387
rfemur -19.7365 12.0694 20.7697
rtibia 55.5537
rfoot -6.10064 -0.291524
rtoes -24.6659
lfemur -48.5025 -6.09477 -19.2844
ltibia 39.5665
lfoot -10.5573 -4.36695
ltoes -18.0017
119
root -7.9649 15.1442 18.8179 -162.915 0.918517 177.077
lowerback -9.27398 -1.3547 -7.48357
upperback -2.23093 -0.318952 -4.89809
thorax 2.92213 0.0617308 -0.924302
lowerneck -18.4616 1.42766 5.22072
upperneck 24.9179 0.596145 2.78562
head 11.1727 1.48961 0.300055
rclavicle 1.33186e-014 4.29375e-014
rhumerus -38.577 19.1027 -96.2778
rradius 46.8939
rwrist -5.48546
rhand -13.2003 -13.4101
rfingers 7.12502
rthumb 12.9001 -42.9914
lclavicle 1.33186e-014 4.29375e-014
lhumerus -45.9945 3.65468 54.9135
lradius 19.2382
lwrist 37.7211
lhand -31.6838 -0.273977
lfingers 7.12502
lthumb -4.94346 29.6484
rfemur -21.0031 11.2266 20.2763
rtibia 58.4165
rfoot -4.23183 0.0379272
rtoes -22.0657
lfemur -47.4558 -6.33763 -19.95
ltibia 39.5738
lfoot -11.2254 -4.05466
ltoes -17.9269
120
root -7.9749 15.1428 18.6678 -163.118 0.949103 176.668
lowerback -8.914 -1.53023 -8.55589
upperback -2.16747 -0.424931 -5.1499
thorax 2.80401 0.0294618 -0.603479
lowerneck -18.3949 1.40362 5.1377
upperneck 24.9191 0.538694 3.03398
head 11.1598 1.49288 0.3964
rclavicle -7.95139e-016 -1.38354e-013
rhumerus -39.2883 18.5291 -95.9296
rradius 46.5408
rwrist -5.41504
rhand -13.7511 -13.7463
rfingers 7.12502
rthumb 12.3691 -43.3604
lclavicle -7.95139e-016 -1.38354e-013
lhumerus -45.0008 3.12704 55.6275
lradius 19.0368
lwrist 37.5547
lhand -31.0451 0.107956
lfingers 7.12502
lthumb -4.32666 30.0438
rfemur -22.4306 10.4018 19.8548
rtibia 61.1605
rfoot -2.87655 0.0803744
rtoes -19.9521
lfemur -46.5452 -6.5523 -20.5223
ltibia 39.5342
lfoot -11.8373 -3.78378
ltoes -17.9035
121
root -7.98578 15.1454 18.5189 -163.185 0.928257 176.392
lowerback -8.67641 -1.67376 -9.38471
upperback -2.13765 -0.506349 -5.38121
thorax 2.71777 0.0106159 -0.395992
lowerneck -18.3525 1.36473 5.03802
upperneck 24.9482 0.470975 3.25248
head 11.1618 1.48716 0.483814
rclavicle 1.70955e-014 9.54166e-014
rhumerus -39.9914 17.8516 -95.5462
rradius 46.1799
rwrist -5.46603
rhand -14.3495 -14.2159
rfingers 7.12502
rthumb 11.7921 -43.864
lclavicle 1.70955e-014 9.54166e-014
lhumerus -43.8688 2.59143 56.3298
lradius 18.8029
lwrist 37.0022
lhand -30.3426 0.676644
lfingers 7.12502
lthumb -3.64829 30.6252
rfemur -24.0165 9.60089 19.5666
rtibia 63.7506
rfoot -2.03741 -0.155723
rtoes -18.5138
lfemur -45.8076 -6.73763 -20.9419
ltibia 39.5003
lfoot -12.4112 -3.54918
ltoes -17.929
